<svg width="59" height="59" viewBox="0 0 59 59" fill="none" xmlns="http://www.w3.org/2000/svg">
<path fill-rule="evenodd" clip-rule="evenodd" d="M29.1667 58.3333C45.2748 58.3333 58.3333 45.2748 58.3333 29.1667C58.3333 13.0584 45.2748 0 29.1667 0C13.0584 0 0 13.0584 0 29.1667C0 45.2748 13.0584 58.3333 29.1667 58.3333ZM31.3542 20.4167C31.3542 19.2086 30.3747 18.2292 29.1667 18.2292C27.9586 18.2292 26.9792 19.2086 26.9792 20.4167V26.9792H20.4167C19.2086 26.9792 18.2292 27.9586 18.2292 29.1667C18.2292 30.3747 19.2086 31.3542 20.4167 31.3542H26.9792V37.9167C26.9792 39.1247 27.9586 40.1042 29.1667 40.1042C30.3747 40.1042 31.3542 39.1247 31.3542 37.9167V31.3542H37.9167C39.1247 31.3542 40.1042 30.3747 40.1042 29.1667C40.1042 27.9586 39.1247 26.9792 37.9167 26.9792H31.3542V20.4167Z" fill="#2ECC71"/>
</svg>
