<svg width="40" height="40" viewBox="0 0 40 40" fill="none" xmlns="http://www.w3.org/2000/svg">
<path fill-rule="evenodd" clip-rule="evenodd" d="M20 40C31.0456 40 40 31.0456 40 20C40 8.9543 31.0456 0 20 0C8.9543 0 0 8.9543 0 20C0 31.0456 8.9543 40 20 40ZM20.3429 18.5C21.8872 18.5 20.4855 18.5 19.6571 18.5C18.8287 18.5 18.1708 18.5 18.5 18.5H14C13.1716 18.5 12.5 19.1716 12.5 20C12.5 20.8284 13.1716 21.5 14 21.5H18.5H19.3143C20.6857 21.5 20.2002 21.5 21.0286 21.5C21.857 21.5 21.3714 21.3714 22.0571 23.4286L21.5 21.5H26C26.8284 21.5 27.5 20.8284 27.5 20C27.5 19.1716 26.8284 18.5 26 18.5H21.5H20.3429Z" fill="#D72638"/>
</svg>
