<svg width="41" height="41" viewBox="0 0 41 41" fill="none" xmlns="http://www.w3.org/2000/svg">
<path fill-rule="evenodd" clip-rule="evenodd" d="M36.59 32.1917C42.7958 23.0542 40.4192 10.6158 31.2817 4.40999C22.1441 -1.79586 9.70579 0.580846 3.5 9.71832C-2.70585 18.8559 -0.329224 31.2942 8.80834 37.5C17.9458 43.7058 30.3842 41.3292 36.59 32.1917ZM18.5449 19.9099C18 21.4099 17.9614 21.2884 18.5 20.4099C18.0346 21.0952 17.7764 21.6255 17.9614 21.3531L14.5 33.5C15.5 32 14.8453 32.5 14.5 33.5C14.0346 34.1853 16.5 31.5 14.5 33.5L21.5 25.4099C21.5 25.4099 22.5 24.0901 23 23.5C23.5 22.9099 24 21.8531 24 22C24 22.1469 28 14.4099 29 12.4099C30 10.4099 30.5 8.40988 28 7.40993C25.5 6.40999 24 7.90999 23 9.71832C22 11.5267 18.9968 18.955 18.9968 18.955L18.5449 19.9099Z" fill="#78A5D8"/>
</svg>
