<svg width="41" height="41" viewBox="0 0 41 41" fill="none" xmlns="http://www.w3.org/2000/svg">
<path fill-rule="evenodd" clip-rule="evenodd" d="M36.59 31.7817C42.7958 22.6443 40.4191 10.2058 31.2817 4.00005C22.1441 -2.20579 9.70577 0.170911 3.49998 9.30839C-2.70587 18.4459 -0.329248 30.8842 8.80831 37.0901C17.9458 43.2959 30.3841 40.9193 36.59 31.7817ZM18.5449 19.5C18 21 17.9614 20.8785 18.5 20C18.0346 20.6853 17.7764 21.2155 17.9614 20.9432L15 31.5C16 30 15.3453 30.5 15 31.5C14.5346 32.1853 17 29.5 15 31.5L21.5 25L23 23C23.7705 21.8655 24.4667 20.1645 24 20.9432C23.5619 21.8526 24.4667 20.1645 24 20.9432L29 12C29.4654 11.3147 27.1853 10.4654 26.5 10C25.8147 9.53458 23.4654 8.62309 23 9.30839L18.9967 18.545L18.5449 19.5Z" fill="#78A5D8"/>
</svg>
